<?xml version="1.0" encoding="UTF-8" standalone="no"?>
<!-- Created with Inkscape (http://www.inkscape.org/) -->

<svg
   xmlns:dc="http://purl.org/dc/elements/1.1/"
   xmlns:cc="http://creativecommons.org/ns#"
   xmlns:rdf="http://www.w3.org/1999/02/22-rdf-syntax-ns#"
   xmlns:svg="http://www.w3.org/2000/svg"
   xmlns="http://www.w3.org/2000/svg"
   xmlns:sodipodi="http://sodipodi.sourceforge.net/DTD/sodipodi-0.dtd"
   xmlns:inkscape="http://www.inkscape.org/namespaces/inkscape"
   version="1.1"
   id="svg2"
   xml:space="preserve"
   width="816"
   height="1056"
   viewBox="0 0 816 1056"
   sodipodi:docname="asciiart_joan.svg"
   inkscape:version="0.92.5 (2060ec1f9f, 2020-04-08)"><metadata
     id="metadata8"><rdf:RDF><cc:Work
         rdf:about=""><dc:format>image/svg+xml</dc:format><dc:type
           rdf:resource="http://purl.org/dc/dcmitype/StillImage" /><dc:title></dc:title></cc:Work></rdf:RDF></metadata><defs
     id="defs6"><clipPath
       clipPathUnits="userSpaceOnUse"
       id="clipPath18"><path
         d="M 116.66666,116.66666 H 2437.5 V 3185.0461 H 116.66666 Z"
         id="path16"
         inkscape:connector-curvature="0"
         style="clip-rule:evenodd" /></clipPath><clipPath
       clipPathUnits="userSpaceOnUse"
       id="clipPath32"><path
         d="M 116.66666,116.66666 H 2437.5 V 3187.5 H 116.66666 Z"
         id="path30"
         inkscape:connector-curvature="0" /></clipPath><clipPath
       clipPathUnits="userSpaceOnUse"
       id="clipPath38"><path
         d="M 116.66666,116.66666 H 2437.5 V 3185.0461 H 116.66666 Z"
         id="path36"
         inkscape:connector-curvature="0" /></clipPath><clipPath
       clipPathUnits="userSpaceOnUse"
       id="clipPath44"><path
         d="M 141.68912,2162.2529 V 151.07254 c -2e-5,-2.59117 0.9161,-4.80286 2.74833,-6.63509 1.83223,-1.83223 4.04392,-2.74833 6.63509,-2.74833 H 2403.0942 c 2.5911,0 4.8028,0.9161 6.6348,2.74833 1.8323,1.83223 2.7483,4.04392 2.7485,6.63509 V 2162.2529 c -2e-4,2.5911 -0.9162,4.8028 -2.7485,6.635 -1.832,1.8323 -4.0437,2.7483 -6.6348,2.7486 H 151.07254 c -2.59117,-3e-4 -4.80286,-0.9163 -6.63509,-2.7486 -1.83223,-1.8322 -2.74835,-4.0439 -2.74833,-6.635 z"
         id="path42"
         inkscape:connector-curvature="0" /></clipPath></defs><sodipodi:namedview
     pagecolor="#ffffff"
     bordercolor="#666666"
     borderopacity="1"
     objecttolerance="10"
     gridtolerance="10"
     guidetolerance="10"
     inkscape:pageopacity="0"
     inkscape:pageshadow="2"
     inkscape:window-width="1920"
     inkscape:window-height="1009"
     id="namedview4"
     showgrid="false"
     inkscape:zoom="0.4469697"
     inkscape:cx="658.21811"
     inkscape:cy="576.03301"
     inkscape:window-x="0"
     inkscape:window-y="34"
     inkscape:window-maximized="1"
     inkscape:current-layer="g10" /><g
     id="g10"
     inkscape:groupmode="layer"
     inkscape:label="asciiart_joan"
     transform="matrix(0.31999998,0,0,0.31999998,0,2.64e-5)"><g
       id="g26"
       transform="matrix(1.5207907,0,0,1.5207907,-210.92875,-70.768278)"><g
         id="g28"
         clip-path="url(#clipPath32)"><g
           id="g34"
           clip-path="url(#clipPath38)"><g
             id="g40"
             clip-path="url(#clipPath44)"><g
               id="g46"
               transform="matrix(3.1278076,0,0,3.1278076,116.66666,116.66666)"><text
                 transform="translate(394.12378,32)"
                 style="font-variant:normal;font-weight:normal;font-size:13.60000038px;font-family:'Liberation Mono';-inkscape-font-specification:LiberationMono;writing-mode:lr-tb;fill:#333333;fill-opacity:1;fill-rule:nonzero;stroke:none"
                 id="text50"><tspan
                   x="0 8.1575928 16.315186 24.472778 32.630371 40.787964 48.945557 57.103149 65.260742 73.418335 81.575928 89.733521 97.891113 106.04871 114.2063 122.36389 130.52148"
                   y="0"
                   sodipodi:role="line"
                   id="tspan48">┌─► UNIGIS Girona</tspan></text>
<text
                 transform="translate(18.875,51)"
                 style="font-variant:normal;font-weight:normal;font-size:13.60000038px;font-family:'Liberation Mono';-inkscape-font-specification:LiberationMono;writing-mode:lr-tb;fill:#333333;fill-opacity:1;fill-rule:nonzero;stroke:none"
                 id="text54"><tspan
                   x="0 8.1575775 16.315155 24.472733 32.63031 40.787888 48.945465 57.103043 65.26062 73.418198 81.575775 89.733353 97.89093 106.04851 114.20609 122.36366 130.52124 138.67882 146.8364 154.99397 163.15155 171.30913 375.24878"
                   y="0"
                   sodipodi:role="line"
                   id="tspan52">┌───────────────────┐ │</tspan></text>
<text
                 transform="translate(18.875,70)"
                 style="font-variant:normal;font-weight:normal;font-size:13.60000038px;font-family:'Liberation Mono';-inkscape-font-specification:LiberationMono;writing-mode:lr-tb;fill:#333333;fill-opacity:1;fill-rule:nonzero;stroke:none"
                 id="text58"><tspan
                   x="0 8.1575775 163.15155 171.30913 220.25459 228.41217 236.56975 244.72733 252.8849 261.04248 269.20007 277.35767 285.51526 293.67285 301.83044 309.98804 318.14563 326.30322 334.46082 342.61841 350.776 358.93359 367.09119 375.24878"
                   y="0"
                   sodipodi:role="line"
                   id="tspan56">│ │ ┌── Triar Màster───┤</tspan></text>
<text
                 transform="translate(18.875,89)"
                 style="font-variant:normal;font-weight:normal;font-size:13.60000038px;font-family:'Liberation Mono';-inkscape-font-specification:LiberationMono;writing-mode:lr-tb;fill:#333333;fill-opacity:1;fill-rule:nonzero;stroke:none"
                 id="text62"><tspan
                   x="0 8.1575775 24.472733 32.63031 40.787888 48.945465 57.103043 65.26062 73.418198 81.575775 89.733353 97.89093 106.04851 114.20609 122.36366 130.52124 138.67882 146.8364 163.15155 171.30913 220.25459 228.41217 375.24878"
                   y="0"
                   sodipodi:role="line"
                   id="tspan60">│ Fi del Grau GOT │ │ │</tspan></text>
<text
                 transform="translate(18.875,108)"
                 style="font-variant:normal;font-weight:normal;font-size:13.60000038px;font-family:'Liberation Mono';-inkscape-font-specification:LiberationMono;writing-mode:lr-tb;fill:#333333;fill-opacity:1;fill-rule:nonzero;stroke:none"
                 id="text66"><tspan
                   x="0 8.1575775 163.15155 171.30913 179.46671 187.62428 195.78186 203.93944 212.09702 220.25459 228.41217 375.24878 383.40637 391.56396 399.72156 407.87915 416.03674 424.19434 432.35193 440.50952 448.66711 456.82471 464.9823 473.13989 481.29749 489.45508 497.61267 505.77026"
                   y="0"
                   sodipodi:role="line"
                   id="tspan64">│ ├──────┤ └─► TIG Saragossa</tspan></text>
<text
                 transform="translate(18.875,127)"
                 style="font-variant:normal;font-weight:normal;font-size:13.60000038px;font-family:'Liberation Mono';-inkscape-font-specification:LiberationMono;writing-mode:lr-tb;fill:#333333;fill-opacity:1;fill-rule:nonzero;stroke:none"
                 id="text70"><tspan
                   x="0 8.1575775"
                   y="0"
                   sodipodi:role="line"
                   id="tspan68">│ </tspan></text>
<text
                 transform="translate(75.96875,127)"
                 style="font-variant:normal;font-weight:normal;font-size:13.60000038px;font-family:'Liberation Mono';-inkscape-font-specification:LiberationMono;writing-mode:lr-tb;fill:#333333;fill-opacity:1;fill-rule:nonzero;stroke:none"
                 id="text74"><tspan
                   x="0"
                   y="0"
                   id="tspan72">(</tspan></text>
<text
                 transform="translate(84.125,127)"
                 style="font-variant:normal;font-weight:normal;font-size:13.60000038px;font-family:'Liberation Mono';-inkscape-font-specification:LiberationMono;writing-mode:lr-tb;fill:#0086b3;fill-opacity:1;fill-rule:nonzero;stroke:none"
                 id="text78"><tspan
                   x="0 8.1575775 16.315155 24.472733"
                   y="0"
                   sodipodi:role="line"
                   id="tspan76">2016</tspan></text>
<text
                 transform="translate(116.75,127)"
                 style="font-variant:normal;font-weight:normal;font-size:13.60000038px;font-family:'Liberation Mono';-inkscape-font-specification:LiberationMono;writing-mode:lr-tb;fill:#333333;fill-opacity:1;fill-rule:nonzero;stroke:none"
                 id="text82"><tspan
                   x="0"
                   y="0"
                   id="tspan80">)</tspan></text>
<text
                 transform="translate(182.00929,127)"
                 style="font-variant:normal;font-weight:normal;font-size:13.60000038px;font-family:'Liberation Mono';-inkscape-font-specification:LiberationMono;writing-mode:lr-tb;fill:#333333;fill-opacity:1;fill-rule:nonzero;stroke:none"
                 id="text86"><tspan
                   x="0 8.1575775 57.103043"
                   y="0"
                   sodipodi:role="line"
                   id="tspan84">│ │</tspan></text>
<text
                 transform="translate(18.875,146)"
                 style="font-variant:normal;font-weight:normal;font-size:13.60000038px;font-family:'Liberation Mono';-inkscape-font-specification:LiberationMono;writing-mode:lr-tb;fill:#333333;fill-opacity:1;fill-rule:nonzero;stroke:none"
                 id="text90"><tspan
                   x="0 8.1575775 163.15155 171.30913 220.25459 228.41217 236.56975 244.72733 252.8849 261.04248 269.20007 277.35767 285.51526 293.67285 301.83044 309.98804 318.14563 326.30322 334.46082 342.61841 350.776 358.93359 367.09119 375.24878 383.40637 391.56396 399.72156 407.87915 416.03674 424.19434 432.35193 440.50952 448.66711 456.82471 464.9823 473.13989 481.29749"
                   y="0"
                   sodipodi:role="line"
                   id="tspan88">│ │ └─── Voluntariat ───────────────┐</tspan></text>
<text
                 transform="translate(18.875,165)"
                 style="font-variant:normal;font-weight:normal;font-size:13.60000038px;font-family:'Liberation Mono';-inkscape-font-specification:LiberationMono;writing-mode:lr-tb;fill:#333333;fill-opacity:1;fill-rule:nonzero;stroke:none"
                 id="text94"><tspan
                   x="0 8.1575775 16.315155 24.472733 32.63031 40.787888 48.945465 57.103043 65.26062 73.418198 81.575775 89.733353 97.89093 106.04851 114.20609 122.36366 130.52124 138.67882 146.8364 154.99397 163.15155 171.30913 481.29749 489.45508 497.61267"
                   y="0"
                   sodipodi:role="line"
                   id="tspan92">└───────────────────┘ │ c</tspan></text>
<text
                 transform="translate(500.17249,184)"
                 style="font-variant:normal;font-weight:normal;font-size:13.60000038px;font-family:'Liberation Mono';-inkscape-font-specification:LiberationMono;writing-mode:lr-tb;fill:#333333;fill-opacity:1;fill-rule:nonzero;stroke:none"
                 id="text98"><tspan
                   x="0 8.1575928 16.315186"
                   y="0"
                   sodipodi:role="line"
                   id="tspan96">│ a</tspan></text>
<text
                 transform="translate(500.17249,203)"
                 style="font-variant:normal;font-weight:normal;font-size:13.60000038px;font-family:'Liberation Mono';-inkscape-font-specification:LiberationMono;writing-mode:lr-tb;fill:#333333;fill-opacity:1;fill-rule:nonzero;stroke:none"
                 id="text102"><tspan
                   x="0 8.1575928 16.315186"
                   y="0"
                   sodipodi:role="line"
                   id="tspan100">│ n</tspan></text>
<text
                 transform="translate(18.875,222)"
                 style="font-variant:normal;font-weight:normal;font-size:13.60000038px;font-family:'Liberation Mono';-inkscape-font-specification:LiberationMono;writing-mode:lr-tb;fill:#333333;fill-opacity:1;fill-rule:nonzero;stroke:none"
                 id="text106"><tspan
                   x="0 8.1575775 16.315155 24.472733 32.63031 40.787888 48.945465 57.103043 65.26062 73.418198 81.575775 89.733353 97.89093 106.04851 114.20609 122.36366 130.52124 138.67882 146.8364 154.99397 163.15155 171.30913 481.29749 489.45508"
                   y="0"
                   sodipodi:role="line"
                   id="tspan104">┌───────────────────┐ │ </tspan></text>
<text
                 transform="translate(516.48438,222)"
                 style="font-variant:normal;font-weight:normal;font-size:13.60000038px;font-family:'Liberation Mono';-inkscape-font-specification:LiberationMono;writing-mode:lr-tb;fill:#3a2d4f;fill-opacity:1;fill-rule:nonzero;stroke:none"
                 id="text110"><tspan
                   x="0"
                   y="0"
                   id="tspan108">v</tspan></text>
<text
                 transform="translate(18.875,241)"
                 style="font-variant:normal;font-weight:normal;font-size:13.60000038px;font-family:'Liberation Mono';-inkscape-font-specification:LiberationMono;writing-mode:lr-tb;fill:#333333;fill-opacity:1;fill-rule:nonzero;stroke:none"
                 id="text114"><tspan
                   x="0 8.1575775 163.15155 171.30913 481.29749 489.45508 497.61267"
                   y="0"
                   sodipodi:role="line"
                   id="tspan112">│ │ │ i</tspan></text>
<text
                 transform="translate(18.875,260)"
                 style="font-variant:normal;font-weight:normal;font-size:13.60000038px;font-family:'Liberation Mono';-inkscape-font-specification:LiberationMono;writing-mode:lr-tb;fill:#333333;fill-opacity:1;fill-rule:nonzero;stroke:none"
                 id="text118"><tspan
                   x="0 8.1575775 48.945465 57.103043 65.26062 73.418198 81.575775 89.733353 97.89093 106.04851 114.20609 122.36366 130.52124 163.15155 171.30913 179.46671 187.62428 195.78186 203.93944 212.09702 220.25459 228.41217 236.56975 244.72733 252.8849 261.04248 269.20007 277.35767 285.51526 293.67285 301.83044 309.98804 318.14563 326.30322 334.46082 342.61841 350.776 358.93359 367.09119 375.24878 383.40637 391.56396 399.72156 407.87915 416.03674 424.19434 432.35193 440.50952 448.66711 456.82471 464.9823 473.13989 481.29749"
                   y="0"
                   sodipodi:role="line"
                   id="tspan116">│ Màster TIG ├────────┬─────── Pilot dron AESA ◄────┘</tspan></text>
<text
                 transform="translate(18.875,279)"
                 style="font-variant:normal;font-weight:normal;font-size:13.60000038px;font-family:'Liberation Mono';-inkscape-font-specification:LiberationMono;writing-mode:lr-tb;fill:#333333;fill-opacity:1;fill-rule:nonzero;stroke:none"
                 id="text122"><tspan
                   x="0 8.1575775 163.15155 171.30913 236.56975"
                   y="0"
                   sodipodi:role="line"
                   id="tspan120">│ │ │</tspan></text>
<text
                 transform="translate(18.875,298)"
                 style="font-variant:normal;font-weight:normal;font-size:13.60000038px;font-family:'Liberation Mono';-inkscape-font-specification:LiberationMono;writing-mode:lr-tb;fill:#333333;fill-opacity:1;fill-rule:nonzero;stroke:none"
                 id="text126"><tspan
                   x="0 8.1575775"
                   y="0"
                   sodipodi:role="line"
                   id="tspan124">│ </tspan></text>
<text
                 transform="translate(84.125,298)"
                 style="font-variant:normal;font-weight:normal;font-size:13.60000038px;font-family:'Liberation Mono';-inkscape-font-specification:LiberationMono;writing-mode:lr-tb;fill:#333333;fill-opacity:1;fill-rule:nonzero;stroke:none"
                 id="text130"><tspan
                   x="0"
                   y="0"
                   id="tspan128">(</tspan></text>
<text
                 transform="translate(92.28125,298)"
                 style="font-variant:normal;font-weight:normal;font-size:13.60000038px;font-family:'Liberation Mono';-inkscape-font-specification:LiberationMono;writing-mode:lr-tb;fill:#0086b3;fill-opacity:1;fill-rule:nonzero;stroke:none"
                 id="text134"><tspan
                   x="0 8.1575775 16.315155 24.472733"
                   y="0"
                   sodipodi:role="line"
                   id="tspan132">2017</tspan></text>
<text
                 transform="translate(124.90625,298)"
                 style="font-variant:normal;font-weight:normal;font-size:13.60000038px;font-family:'Liberation Mono';-inkscape-font-specification:LiberationMono;writing-mode:lr-tb;fill:#333333;fill-opacity:1;fill-rule:nonzero;stroke:none"
                 id="text138"><tspan
                   x="0"
                   y="0"
                   id="tspan136">)</tspan></text>
<text
                 transform="translate(182.00797,298)"
                 style="font-variant:normal;font-weight:normal;font-size:13.60000038px;font-family:'Liberation Mono';-inkscape-font-specification:LiberationMono;writing-mode:lr-tb;fill:#333333;fill-opacity:1;fill-rule:nonzero;stroke:none"
                 id="text142"><tspan
                   x="0 8.1575775 24.472733 32.63031 40.787888 48.945465 57.103043 65.26062 73.418198 81.575775 89.733353 97.89093 106.04851 114.20609 122.36366 130.52124 138.67882 146.8364 154.99397 163.15155 171.30913 179.46671 187.62428 195.78186 203.93944 212.09702 220.25461 228.4122 236.56979 244.72739 252.88498 261.04257 269.20016 277.35776 285.51535"
                   y="0"
                   sodipodi:role="line"
                   id="tspan140">│ ┌─────┼───── Mapeado Colaborativo</tspan></text>
<text
                 transform="translate(18.875,317)"
                 style="font-variant:normal;font-weight:normal;font-size:13.60000038px;font-family:'Liberation Mono';-inkscape-font-specification:LiberationMono;writing-mode:lr-tb;fill:#333333;fill-opacity:1;fill-rule:nonzero;stroke:none"
                 id="text146"><tspan
                   x="0 8.1575775 163.15155 171.30913 187.62428 195.78186 236.56975"
                   y="0"
                   sodipodi:role="line"
                   id="tspan144">│ │ │ │</tspan></text>
<text
                 transform="translate(18.875,336)"
                 style="font-variant:normal;font-weight:normal;font-size:13.60000038px;font-family:'Liberation Mono';-inkscape-font-specification:LiberationMono;writing-mode:lr-tb;fill:#333333;fill-opacity:1;fill-rule:nonzero;stroke:none"
                 id="text150"><tspan
                   x="0 8.1575775 16.315155 24.472733 32.63031 40.787888 48.945465 57.103043 65.26062 73.418198 81.575775 89.733353 97.89093 106.04851 114.20609 122.36366 130.52124 138.67882 146.8364 154.99397 163.15155 171.30913 187.62428 195.78186 203.93944 212.09702 220.25459 228.41217 236.56975 244.72733 252.8849 261.04248 269.20007 277.35767 285.51526 293.67285 301.83044 309.98804 318.14563 326.30322 334.46082 342.61841 350.776 358.93359 367.09119 375.24878 383.40637 391.56396 399.72156 407.87915 416.03674 424.19434 432.35193"
                   y="0"
                   sodipodi:role="line"
                   id="tspan148">└───────────────────┘ ├─────┼─── Zaragoza Maker Space</tspan></text>
<text
                 transform="translate(206.49928,355)"
                 style="font-variant:normal;font-weight:normal;font-size:13.60000038px;font-family:'Liberation Mono';-inkscape-font-specification:LiberationMono;writing-mode:lr-tb;fill:#333333;fill-opacity:1;fill-rule:nonzero;stroke:none"
                 id="text154"><tspan
                   x="0 8.1575775 48.945465"
                   y="0"
                   sodipodi:role="line"
                   id="tspan152">│ │</tspan></text>
<text
                 transform="translate(206.49928,374)"
                 style="font-variant:normal;font-weight:normal;font-size:13.60000038px;font-family:'Liberation Mono';-inkscape-font-specification:LiberationMono;writing-mode:lr-tb;fill:#333333;fill-opacity:1;fill-rule:nonzero;stroke:none"
                 id="text158"><tspan
                   x="0 8.1575775 48.945465 57.103043 65.26062 73.418198 81.57579 89.733383 97.890976 106.04857 114.20616 122.36375 130.52135 138.67894 146.83653"
                   y="0"
                   sodipodi:role="line"
                   id="tspan156">│ ├── DroneMapZ</tspan></text>
<text
                 transform="translate(206.49928,393)"
                 style="font-variant:normal;font-weight:normal;font-size:13.60000038px;font-family:'Liberation Mono';-inkscape-font-specification:LiberationMono;writing-mode:lr-tb;fill:#333333;fill-opacity:1;fill-rule:nonzero;stroke:none"
                 id="text162"><tspan
                   x="0 8.1575775 48.945465"
                   y="0"
                   sodipodi:role="line"
                   id="tspan160">│ │</tspan></text>
<text
                 transform="translate(206.49928,412)"
                 style="font-variant:normal;font-weight:normal;font-size:13.60000038px;font-family:'Liberation Mono';-inkscape-font-specification:LiberationMono;writing-mode:lr-tb;fill:#333333;fill-opacity:1;fill-rule:nonzero;stroke:none"
                 id="text166"><tspan
                   x="0 8.1575775 48.945465 57.103043 65.26062 73.418198 81.57579 89.733383 97.890976 106.04857 114.20616 122.36375 130.52135 138.67894 146.83653 154.99413 163.15172 171.30931 179.4669 187.6245 195.78209 203.93968 212.09727 220.25487 228.41246 236.57005"
                   y="0"
                   sodipodi:role="line"
                   id="tspan164">│ └─ Pràctiques en empresa</tspan></text>
<text
                 transform="translate(206.49928,431)"
                 style="font-variant:normal;font-weight:normal;font-size:13.60000038px;font-family:'Liberation Mono';-inkscape-font-specification:LiberationMono;writing-mode:lr-tb;fill:#333333;fill-opacity:1;fill-rule:nonzero;stroke:none"
                 id="text170"><tspan
                   x="0"
                   y="0"
                   id="tspan168">│</tspan></text>
<text
                 transform="translate(206.49928,450)"
                 style="font-variant:normal;font-weight:normal;font-size:13.60000038px;font-family:'Liberation Mono';-inkscape-font-specification:LiberationMono;writing-mode:lr-tb;fill:#333333;fill-opacity:1;fill-rule:nonzero;stroke:none"
                 id="text174"><tspan
                   x="0"
                   y="0"
                   id="tspan172">│</tspan></text>
<text
                 transform="translate(206.49928,469)"
                 style="font-variant:normal;font-weight:normal;font-size:13.60000038px;font-family:'Liberation Mono';-inkscape-font-specification:LiberationMono;writing-mode:lr-tb;fill:#333333;fill-opacity:1;fill-rule:nonzero;stroke:none"
                 id="text178"><tspan
                   x="0"
                   y="0"
                   id="tspan176">│</tspan></text>
<text
                 transform="translate(18.875,488)"
                 style="font-variant:normal;font-weight:normal;font-size:13.60000038px;font-family:'Liberation Mono';-inkscape-font-specification:LiberationMono;writing-mode:lr-tb;fill:#333333;fill-opacity:1;fill-rule:nonzero;stroke:none"
                 id="text182"><tspan
                   x="0 8.1575775 16.315155 24.472733 32.63031 40.787888 48.945465 57.103043 65.26062 73.418198 81.575775 89.733353 97.89093 106.04851 114.20609 122.36366 130.52124 138.67882 146.8364 154.99397 163.15155 171.30913 187.62428 195.78186 236.56975 244.72733 252.8849 261.04248 269.20007 277.35767 285.51526 293.67285 301.83044 309.98804 318.14563 326.30322 334.46082 342.61841 350.776 358.93359"
                   y="0"
                   sodipodi:role="line"
                   id="tspan180">┌───────────────────┐ │ ┌─ Fotogrametria</tspan></text>
<text
                 transform="translate(18.875,507)"
                 style="font-variant:normal;font-weight:normal;font-size:13.60000038px;font-family:'Liberation Mono';-inkscape-font-specification:LiberationMono;writing-mode:lr-tb;fill:#333333;fill-opacity:1;fill-rule:nonzero;stroke:none"
                 id="text186"><tspan
                   x="0 8.1575775 163.15155 171.30913 187.62428 195.78186 236.56975"
                   y="0"
                   sodipodi:role="line"
                   id="tspan184">│ │ │ │</tspan></text>
<text
                 transform="translate(18.875,526)"
                 style="font-variant:normal;font-weight:normal;font-size:13.60000038px;font-family:'Liberation Mono';-inkscape-font-specification:LiberationMono;writing-mode:lr-tb;fill:#333333;fill-opacity:1;fill-rule:nonzero;stroke:none"
                 id="text190"><tspan
                   x="0 8.1575775 48.945465 57.103043 65.26062 73.418198 81.575775 89.733353 97.89093 106.04851 114.20609 163.15155 171.30913 187.62428 195.78186 236.56975 244.72733 252.8849 261.04248 269.20007 277.35767 285.51526 293.67285 301.83044 309.98804 318.14563 326.30322 334.46082 342.61841 350.776 358.93359 367.09119 375.24878"
                   y="0"
                   sodipodi:role="line"
                   id="tspan188">│ Tecnitop │ │ ├─── Làser escàner</tspan></text>
<text
                 transform="translate(18.875,545)"
                 style="font-variant:normal;font-weight:normal;font-size:13.60000038px;font-family:'Liberation Mono';-inkscape-font-specification:LiberationMono;writing-mode:lr-tb;fill:#333333;fill-opacity:1;fill-rule:nonzero;stroke:none"
                 id="text194"><tspan
                   x="0 8.1575775 163.15155 171.30913 187.62428 195.78186 236.56975"
                   y="0"
                   sodipodi:role="line"
                   id="tspan192">│ │ │ │</tspan></text>
<text
                 transform="translate(18.875,564)"
                 style="font-variant:normal;font-weight:normal;font-size:13.60000038px;font-family:'Liberation Mono';-inkscape-font-specification:LiberationMono;writing-mode:lr-tb;fill:#333333;fill-opacity:1;fill-rule:nonzero;stroke:none"
                 id="text198"><tspan
                   x="0 8.1575775"
                   y="0"
                   sodipodi:role="line"
                   id="tspan196">│ </tspan></text>
<text
                 transform="translate(59.65625,564)"
                 style="font-variant:normal;font-weight:normal;font-size:13.60000038px;font-family:'Liberation Mono';-inkscape-font-specification:LiberationMono;writing-mode:lr-tb;fill:#333333;fill-opacity:1;fill-rule:nonzero;stroke:none"
                 id="text202"><tspan
                   x="0"
                   y="0"
                   id="tspan200">(</tspan></text>
<text
                 transform="translate(67.8125,564)"
                 style="font-variant:normal;font-weight:normal;font-size:13.60000038px;font-family:'Liberation Mono';-inkscape-font-specification:LiberationMono;writing-mode:lr-tb;fill:#0086b3;fill-opacity:1;fill-rule:nonzero;stroke:none"
                 id="text206"><tspan
                   x="0 8.1575775 16.315155 24.472733"
                   y="0"
                   sodipodi:role="line"
                   id="tspan204">2017</tspan></text>
<text
                 transform="translate(108.59508,564)"
                 style="font-variant:normal;font-weight:normal;font-size:13.60000038px;font-family:'Liberation Mono';-inkscape-font-specification:LiberationMono;writing-mode:lr-tb;fill:#333333;fill-opacity:1;fill-rule:nonzero;stroke:none"
                 id="text210"><tspan
                   x="0 8.1575775"
                   y="0"
                   sodipodi:role="line"
                   id="tspan208">- </tspan></text>
<text
                 transform="translate(124.90625,564)"
                 style="font-variant:normal;font-weight:normal;font-size:13.60000038px;font-family:'Liberation Mono';-inkscape-font-specification:LiberationMono;writing-mode:lr-tb;fill:#0086b3;fill-opacity:1;fill-rule:nonzero;stroke:none"
                 id="text214"><tspan
                   x="0 8.1575775"
                   y="0"
                   sodipodi:role="line"
                   id="tspan212">21</tspan></text>
<text
                 transform="translate(141.21875,564)"
                 style="font-variant:normal;font-weight:normal;font-size:13.60000038px;font-family:'Liberation Mono';-inkscape-font-specification:LiberationMono;writing-mode:lr-tb;fill:#333333;fill-opacity:1;fill-rule:nonzero;stroke:none"
                 id="text218"><tspan
                   x="0"
                   y="0"
                   id="tspan216">)</tspan></text>
<text
                 transform="translate(182.00531,564)"
                 style="font-variant:normal;font-weight:normal;font-size:13.60000038px;font-family:'Liberation Mono';-inkscape-font-specification:LiberationMono;writing-mode:lr-tb;fill:#333333;fill-opacity:1;fill-rule:nonzero;stroke:none"
                 id="text222"><tspan
                   x="0 8.1575775 16.315155 24.472733 32.63031 40.787888 48.945465 57.103043 65.26062 73.418198 81.575775 89.733353 97.89093 106.04851 114.20609 122.36366 130.52124 138.67882 146.8364 154.99397 163.15155 171.30913"
                   y="0"
                   sodipodi:role="line"
                   id="tspan220">├──┴─────┼───── Suport</tspan></text>
<text
                 transform="translate(18.875,583)"
                 style="font-variant:normal;font-weight:normal;font-size:13.60000038px;font-family:'Liberation Mono';-inkscape-font-specification:LiberationMono;writing-mode:lr-tb;fill:#333333;fill-opacity:1;fill-rule:nonzero;stroke:none"
                 id="text226"><tspan
                   x="0 8.1575775 163.15155 171.30913 236.56975"
                   y="0"
                   sodipodi:role="line"
                   id="tspan224">│ │ │</tspan></text>
<text
                 transform="translate(18.875,602)"
                 style="font-variant:normal;font-weight:normal;font-size:13.60000038px;font-family:'Liberation Mono';-inkscape-font-specification:LiberationMono;writing-mode:lr-tb;fill:#333333;fill-opacity:1;fill-rule:nonzero;stroke:none"
                 id="text230"><tspan
                   x="0 8.1575775 48.945465 57.103043 65.26062 73.418198 81.575775 89.733353 97.89093 106.04851 114.20609 122.36366 163.15155 171.30913 236.56975 244.72733 252.8849 261.04248 269.20007 277.35767 285.51526 293.67285 301.83044 309.98804 318.14563 326.30322 334.46082 342.61841"
                   y="0"
                   sodipodi:role="line"
                   id="tspan228">│ 3DSCANNER │ ├─────── Drons</tspan></text>
<text
                 transform="translate(18.875,621)"
                 style="font-variant:normal;font-weight:normal;font-size:13.60000038px;font-family:'Liberation Mono';-inkscape-font-specification:LiberationMono;writing-mode:lr-tb;fill:#333333;fill-opacity:1;fill-rule:nonzero;stroke:none"
                 id="text234"><tspan
                   x="0 8.1575775 163.15155 171.30913 236.56975"
                   y="0"
                   sodipodi:role="line"
                   id="tspan232">│ │ │</tspan></text>
<text
                 transform="translate(18.875,640)"
                 style="font-variant:normal;font-weight:normal;font-size:13.60000038px;font-family:'Liberation Mono';-inkscape-font-specification:LiberationMono;writing-mode:lr-tb;fill:#333333;fill-opacity:1;fill-rule:nonzero;stroke:none"
                 id="text238"><tspan
                   x="0 8.1575775 16.315155 24.472733 32.63031 40.787888 48.945465 57.103043 65.26062 73.418198 81.575775 89.733353 97.89093 106.04851 114.20609 122.36366 130.52124 138.67882 146.8364 154.99397 163.15155 171.30913 236.56975 244.72733 252.8849 261.04248 269.20007 277.35767 285.51526 293.67285 301.83044 309.98804 318.14563 326.30322 334.46082 342.61841 350.776"
                   y="0"
                   sodipodi:role="line"
                   id="tspan236">└───────────────────┘ └───────── GIS </tspan></text>
<text
                 transform="translate(377.79688,640)"
                 style="font-variant:normal;font-weight:normal;font-size:13.60000038px;font-family:'Liberation Mono';-inkscape-font-specification:LiberationMono;writing-mode:lr-tb;fill:#a71d5d;fill-opacity:1;fill-rule:nonzero;stroke:none"
                 id="text242"><tspan
                   x="0"
                   y="0"
                   id="tspan240">&amp;</tspan></text>
<text
                 transform="translate(394.11071,640)"
                 style="font-variant:normal;font-weight:normal;font-size:13.60000038px;font-family:'Liberation Mono';-inkscape-font-specification:LiberationMono;writing-mode:lr-tb;fill:#333333;fill-opacity:1;fill-rule:nonzero;stroke:none"
                 id="text246"><tspan
                   x="0 8.1575775 16.315155 24.472733 32.63031 40.787888 48.945465 57.103043 65.26062 73.418198 81.575775 89.733353"
                   y="0"
                   sodipodi:role="line"
                   id="tspan244">Teledetecció</tspan></text>
</g></g></g></g></g></g></svg>