<?xml version="1.0" encoding="UTF-8" standalone="no"?>
<!-- Created with Inkscape (http://www.inkscape.org/) -->

<svg
   xmlns:dc="http://purl.org/dc/elements/1.1/"
   xmlns:cc="http://creativecommons.org/ns#"
   xmlns:rdf="http://www.w3.org/1999/02/22-rdf-syntax-ns#"
   xmlns:svg="http://www.w3.org/2000/svg"
   xmlns="http://www.w3.org/2000/svg"
   xmlns:sodipodi="http://sodipodi.sourceforge.net/DTD/sodipodi-0.dtd"
   xmlns:inkscape="http://www.inkscape.org/namespaces/inkscape"
   width="210mm"
   height="297mm"
   viewBox="0 0 210 297"
   version="1.1"
   id="svg8"
   sodipodi:docname="leica.svg.svg"
   inkscape:version="0.92.5 (2060ec1f9f, 2020-04-08)">
  <defs
     id="defs2" />
  <sodipodi:namedview
     id="base"
     pagecolor="#ffffff"
     bordercolor="#666666"
     borderopacity="1.0"
     inkscape:pageopacity="0.0"
     inkscape:pageshadow="2"
     inkscape:zoom="0.49497475"
     inkscape:cx="823.61906"
     inkscape:cy="429.9105"
     inkscape:document-units="mm"
     inkscape:current-layer="layer1"
     showgrid="false"
     inkscape:window-width="1920"
     inkscape:window-height="1009"
     inkscape:window-x="0"
     inkscape:window-y="34"
     inkscape:window-maximized="1" />
  <metadata
     id="metadata5">
    <rdf:RDF>
      <cc:Work
         rdf:about="">
        <dc:format>image/svg+xml</dc:format>
        <dc:type
           rdf:resource="http://purl.org/dc/dcmitype/StillImage" />
        <dc:title></dc:title>
      </cc:Work>
    </rdf:RDF>
  </metadata>
  <g
     inkscape:label="Capa 1"
     inkscape:groupmode="layer"
     id="layer1">
    <path
       inkscape:connector-curvature="0"
       id="path839"
       d="m 97.567764,206.59994 1.06116,-2.11239 -0.24058,-4.43087 c -0.13231,-2.43698 -0.29809,-5.28871 -0.36839,-6.33717 l -0.12781,-1.9063 h 1.36998 1.369976 v 4.32783 c 0,4.18068 0.0139,4.32782 0.40942,4.32782 0.27946,0 0.50978,-0.24527 0.7257,-0.77283 0.17396,-0.42505 0.98667,-2.36979 1.80602,-4.32165 l 1.48973,-3.54882 1.28581,-0.007 1.2858,-0.007 -0.56257,1.18499 c -0.30939,0.65175 -2.08132,4.24539 -3.9376,7.98587 -1.85627,3.74046 -3.454599,7.00953 -3.551839,7.26455 -0.160187,0.42017 -0.312867,0.4637 -1.626367,0.4637 h -1.44959 l 1.06115,-2.11239 z m -49.063338,-2.65566 c -1.317528,-0.2185 -2.172561,-0.67549 -2.772899,-1.48202 -0.630295,-0.84677 -0.566323,-3.73464 0.15829,-7.14558 0.950037,-4.47205 1.790061,-6.43832 3.329446,-7.79334 1.51703,-1.33535 3.908551,-1.91588 6.177595,-1.49957 1.301747,0.23883 1.983349,0.62719 2.636738,1.50234 0.435458,0.58324 0.682553,2.10935 0.47526,2.93527 -0.126778,0.50517 -0.195452,0.52746 -1.622587,0.52684 l -1.490205,-6.1e-4 -0.0023,-1.04939 c -0.0023,-1.35919 -0.683807,-2.04066 -2.03982,-2.04066 -1.894498,0 -3.005685,1.51771 -3.923046,5.35826 -1.737547,7.27429 -1.432378,9.01677 1.563655,8.92841 1.85627,-0.0548 2.089779,-0.29271 2.54143,-2.58978 0.210549,-1.07079 0.323911,-2.10039 0.251924,-2.288 -0.09233,-0.24061 -0.379688,-0.34108 -0.975586,-0.34108 -0.70577,0 -0.827998,-0.0592 -0.743158,-0.36064 0.05586,-0.19836 0.162208,-0.66205 0.236352,-1.03044 l 0.134799,-0.66977 h 2.563636 c 2.552491,0 2.563177,0.003 2.45804,0.46369 -0.0581,0.25503 -0.469123,2.16358 -0.913414,4.24123 -0.444297,2.07763 -0.857619,3.82733 -0.918491,3.88819 -0.163742,0.16376 -4.224291,0.67499 -5.180341,0.65223 -0.453395,-0.0108 -1.328891,-0.10328 -1.945556,-0.20558 z m 13.177284,-0.33292 c -0.881111,-0.44016 -1.441857,-1.4891 -1.442285,-2.69796 -4.13e-4,-1.3725 0.787314,-4.94099 1.38632,-6.27953 0.967626,-2.16226 2.666492,-3.12933 5.422792,-3.08685 3.15036,0.0485 4.102686,1.40285 3.49981,4.9771 l -0.248231,1.4717 h -3.386914 -3.386914 l -0.200983,0.52863 c -0.110538,0.29074 -0.20099,1.1254 -0.20099,1.85478 0,1.05136 0.08541,1.41155 0.412177,1.73832 0.84606,0.84607 2.377415,0.32417 2.981848,-1.01623 l 0.378139,-0.83855 h 1.415498 1.415492 l -0.398305,0.77283 c -0.532541,1.03329 -1.570447,1.99704 -2.701371,2.50837 -1.2299,0.55608 -3.895138,0.5924 -4.946083,0.0673 z m 5.976605,-7.16131 c 0.423798,-0.51064 0.497507,-2.01908 0.133107,-2.72377 -0.83282,-1.61049 -3.020944,-0.77968 -3.753244,1.42506 -0.470977,1.41799 -0.262423,1.60796 1.765276,1.60796 1.169488,0 1.667071,-0.0829 1.854866,-0.30925 z m 6.856355,7.21674 c -1.533123,-0.66649 -1.82146,-2.26598 -1.072194,-5.94774 0.503106,-2.47216 0.914822,-3.47997 1.862733,-4.5596 1.016213,-1.1574 2.157972,-1.5949 4.17905,-1.60128 1.933705,-0.007 3.004195,0.35494 3.557905,1.20002 0.68972,1.05264 0.32327,4.68701 -0.7662,7.59889 -0.56812,1.51841 -2.026409,3.07188 -3.179921,3.38744 -1.149945,0.31458 -3.781635,0.26993 -4.581373,-0.0777 z m 3.744286,-1.37485 c 0.686913,-0.31298 1.252294,-1.52555 1.871706,-4.01422 0.602075,-2.41901 0.668002,-4.30078 0.169958,-4.85111 -0.512873,-0.56673 -1.753343,-0.49545 -2.513785,0.14443 -0.725565,0.61051 -1.116897,1.68017 -1.682876,4.59981 -0.513451,2.64872 -0.51102,3.14232 0.01877,3.81586 0.469971,0.59746 1.250168,0.70894 2.136218,0.30523 z m 8.014158,1.37968 c -0.92477,-0.40225 -1.34215,-1.13059 -1.26475,-2.20701 l 0.0642,-0.89271 1.39109,-0.0609 1.39108,-0.0609 v 0.79255 c 0,1.03141 0.28769,1.28715 1.44791,1.28715 1.16592,0 1.83169,-0.59728 1.98745,-1.783 0.089,-0.67756 0.0176,-0.87537 -0.48994,-1.35797 -0.32677,-0.31069 -1.33182,-0.95987 -2.23346,-1.44262 -1.31839,-0.70586 -1.71516,-1.03295 -2.02659,-1.67066 -0.33026,-0.67628 -0.3522,-0.90992 -0.14907,-1.58789 0.50184,-1.67503 1.88723,-2.70126 4.13538,-3.06331 2.32355,-0.37419 4.14036,0.25892 4.5198,1.57504 0.3608,1.25144 0.14113,1.49911 -1.3296,1.49911 h -1.30309 l -0.0639,-0.77136 c -0.16581,-1.99963 -3.25831,-1.27735 -3.25831,0.76101 0,0.61207 0.75844,1.30972 2.23313,2.05414 1.70723,0.86182 2.67054,1.74528 2.83003,2.59548 0.28273,1.5071 -0.88612,3.30927 -2.69165,4.15007 -0.8312,0.38707 -1.37269,0.47936 -2.78368,0.47449 -1.02332,-0.004 -2.02378,-0.12443 -2.40596,-0.29063 z m 22.479196,-0.092 c -0.97341,-0.44207 -1.11325,-0.70553 -1.11325,-2.09728 v -1.01358 h 1.41403 c 1.3969,0 1.41284,0.007 1.31561,0.51484 -0.0548,0.28666 0.0513,0.74334 0.23941,1.03043 0.27856,0.42513 0.5025,0.51559 1.27633,0.51559 0.7625,0 1.05147,-0.11298 1.5409,-0.60241 1.21203,-1.21203 0.58663,-2.54688 -1.72027,-3.67168 -2.48346,-1.21089 -3.08142,-2.0623 -2.62885,-3.74307 0.4865,-1.80669 2.55245,-2.97414 5.26066,-2.97274 2.25182,0.001 3.40043,0.80513 3.40043,2.38011 v 0.7785 h -1.33956 c -1.32319,0 -1.3396,-0.007 -1.34272,-0.56674 -0.001,-0.3117 -0.0712,-0.66878 -0.15457,-0.7935 -0.59376,-0.88923 -2.30294,-0.69045 -2.83021,0.32917 -0.68769,1.32984 -0.29247,1.97413 1.87527,3.05702 1.65465,0.82658 2.4761,1.54059 2.75915,2.39824 0.49315,1.49426 -0.67321,3.48082 -2.55927,4.35907 -1.36804,0.63702 -4.09703,0.68662 -5.39309,0.098 z m 12.13707,0.17528 c -0.81538,-0.24915 -1.29729,-0.90428 -1.29729,-1.76359 0,-0.35898 0.37256,-2.38488 0.82789,-4.502 0.45535,-2.11711 0.77447,-3.93575 0.70915,-4.04144 -0.0653,-0.10571 -0.35101,-0.19214 -0.63487,-0.19214 -0.45712,0 -0.50873,-0.0757 -0.45153,-0.66251 0.0553,-0.56842 0.16349,-0.68256 0.76101,-0.80378 0.80447,-0.16318 0.96592,-0.36494 1.13424,-1.41761 0.11594,-0.72482 0.20327,-0.80015 1.61897,-1.39569 0.82304,-0.34624 1.51144,-0.61466 1.52976,-0.59649 0.0183,0.0182 -0.10772,0.66055 -0.28001,1.4275 -0.3601,1.60245 -0.20176,2.00596 0.78714,2.00596 0.43476,0 0.59303,0.0995 0.59303,0.37278 0,0.63999 -0.48364,1.04638 -1.32199,1.11084 l -0.80677,0.0621 -0.78826,3.70955 c -0.43355,2.04027 -0.78921,3.94606 -0.7904,4.2351 -0.003,0.65001 0.34613,1.02013 0.96132,1.02013 0.41771,0 0.45493,0.073 0.34135,0.66978 -0.0702,0.36838 -0.1585,0.70639 -0.19641,0.75112 -0.15993,0.18877 -2.0883,0.19626 -2.69633,0.0108 z m 7.4614,-0.0718 c -1.06113,-0.4684 -1.41637,-1.04833 -1.50618,-2.45884 -0.0998,-1.56687 0.42997,-4.51926 1.11209,-6.19797 0.99342,-2.44484 2.57109,-3.47608 5.33648,-3.4882 1.82071,-0.008 2.94679,0.37598 3.47732,1.18568 0.45966,0.70154 0.56819,2.12185 0.28473,3.7262 l -0.25489,1.44262 -3.44926,0.0564 -3.44927,0.0564 -0.1394,0.55537 c -0.0766,0.30545 -0.14742,1.14568 -0.15724,1.86715 -0.0155,1.14145 0.0454,1.36303 0.46867,1.70662 0.98969,0.80317 2.45162,0.23399 3.04469,-1.18543 0.28334,-0.67814 0.30357,-0.6867 1.62371,-0.6867 0.73525,0 1.33681,0.0501 1.33681,0.11123 0,0.33063 -0.86561,1.71529 -1.37222,2.19506 -1.03297,0.97825 -2.25714,1.39457 -4.08909,1.39064 -0.91155,-0.003 -1.92511,-0.1255 -2.26695,-0.27644 z m 5.82138,-7.18161 c 0.11244,-0.14168 0.26819,-0.61116 0.3461,-1.04327 0.56107,-3.11176 -3.02177,-3.50415 -3.91579,-0.42886 -0.45358,1.56026 -0.28045,1.72974 1.767,1.72974 1.03215,0 1.67065,-0.0913 1.80269,-0.25761 z m 24.37457,7.25205 c -1.13117,-0.47656 -1.66535,-1.56185 -1.36256,-2.76831 0.12173,-0.48489 0.21156,-0.51657 1.46529,-0.51657 h 1.33565 v 0.70658 c 0,0.94327 0.4545,1.3543 1.49756,1.3543 1.5403,0 2.46363,-1.43466 1.76616,-2.74421 -0.32402,-0.60839 -0.65427,-0.8525 -2.30891,-1.70677 -2.00576,-1.03556 -2.39743,-1.48029 -2.39743,-2.72222 0,-2.30957 2.13341,-3.81798 5.39114,-3.81177 1.82452,0.003 2.85403,0.5169 3.21742,1.60456 0.43638,1.30608 0.23144,1.5491 -1.30637,1.5491 h -1.32566 v -0.69606 c 0,-0.86777 -0.43536,-1.24559 -1.40364,-1.21814 -0.56226,0.0159 -0.89168,0.18093 -1.32137,0.66184 -1.14627,1.2829 -0.66867,2.08792 2.09033,3.52331 2.06894,1.07638 2.55198,1.69997 2.4285,3.13511 -0.10759,1.25069 -0.94601,2.47943 -2.1887,3.2077 -0.82349,0.48259 -1.19298,0.55685 -3.00273,0.60357 -1.13504,0.0292 -2.29364,-0.0436 -2.57468,-0.16202 z m -18.81534,-5.19118 c 0.61066,-2.86203 1.17858,-5.52828 1.26205,-5.925 l 0.15177,-0.72129 1.38257,-0.0609 c 1.35991,-0.0599 1.38256,-0.0524 1.38256,0.46371 0,0.66385 0.29527,0.66169 1.26343,-0.009 1.51706,-1.05131 3.52408,-1.0386 4.22212,0.0267 0.33856,0.51671 1.17637,0.69256 1.42018,0.2981 0.30855,-0.49926 1.88886,-1.08637 2.92413,-1.08637 1.24049,0 2.0541,0.43321 2.24544,1.19564 0.0757,0.30156 -0.32477,2.68065 -0.97089,5.76781 l -1.0997,5.25454 h -1.40973 c -1.24582,0 -1.39733,-0.0419 -1.30311,-0.36064 0.32855,-1.11142 1.77594,-8.38101 1.77594,-8.91975 0,-0.90516 -0.31479,-1.38198 -1.01367,-1.53548 -0.72708,-0.1597 -1.75059,0.31263 -2.10255,0.97027 -0.17415,0.32541 -2.23486,9.33024 -2.24131,9.79408 -4.2e-4,0.0284 -0.60353,0.0514 -1.34028,0.0514 -0.73676,0 -1.33956,-0.0324 -1.33956,-0.072 0,-0.0396 0.41732,-2.03728 0.92738,-4.43926 0.51006,-2.402 0.92444,-4.61851 0.92084,-4.92561 -0.008,-0.75021 -0.42704,-1.25514 -1.14912,-1.38728 -0.76457,-0.13992 -1.50889,0.25316 -1.96081,1.0355 -0.25905,0.44848 -2.24178,9.03353 -2.24178,9.70674 0,0.045 -0.63365,0.0819 -1.4081,0.0819 h -1.40809 z m -33.12277,-20.06088 c -0.51006,-0.0443 -2.31848,-0.17913 -4.01869,-0.29965 -7.884216,-0.5588 -17.578666,-2.28221 -28.768686,-5.11429 -6.604454,-1.67152 -8.877962,-2.33051 -12.654751,-3.66803 -0.793439,-0.28098 -2.277263,-0.78681 -3.297388,-1.12407 -1.02013,-0.33727 -2.333296,-0.80809 -2.918149,-1.04627 l -1.063361,-0.43305 -1.318657,0.8328 c -3.492605,2.20577 -6.81483,3.48626 -10.580981,4.07822 -7.530345,1.18359 -14.281888,-1.9529 -14.672263,-6.81617 -0.199159,-2.4811 0.894065,-4.23313 3.349955,-5.36871 3.396385,-1.57047 7.663133,-1.55984 14.466513,0.0361 1.155726,0.27111 2.246986,0.43701 2.42503,0.3687 1.088286,-0.41762 6.50315,-15.82928 6.57646,-18.71779 l 0.02585,-1.01993 -0.927395,-0.16429 c -4.372026,-0.77452 -7.422053,-1.68552 -7.4146,-2.21464 0.0023,-0.17665 0.186448,-0.72207 0.408796,-1.21203 0.30672,-0.67586 0.492116,-0.86368 0.768302,-0.7783 2.248411,0.69501 7.3156,1.48694 7.951869,1.24278 0.168237,-0.0646 0.351149,-0.27325 0.406466,-0.46378 0.0553,-0.19051 0.622234,-2.23981 1.259811,-4.554 2.029234,-7.36534 3.488492,-11.08487 5.587688,-14.24251 2.031368,-3.05564 5.544434,-5.87966 9.409529,-7.56398 3.832279,-1.67 8.206728,-1.73888 11.250586,-0.17715 1.17063,0.60062 3.14602,2.58476 3.71131,3.72775 1.53256,3.09877 1.01286,7.46613 -1.48744,12.49956 -3.22001,6.48231 -10.296664,11.69386 -17.869203,13.15962 -1.320861,0.25567 -1.27355,0.18652 -2.1138,3.08996 -2.850625,9.85022 -4.169391,13.39824 -6.463806,17.39032 -0.877918,1.52749 -1.258736,2.38371 -1.1427,2.56922 0.465399,0.74414 15.450309,4.66624 23.739399,6.21349 11.56392,2.15853 21.672936,3.0178 38.048616,3.23415 13.35253,0.17642 33.0703,-0.58373 40.96478,-1.57923 6.34295,-0.79987 17.66197,-2.79777 21.60523,-3.81352 0.51743,-0.13331 0.55074,-0.0874 0.87586,1.20694 0.1859,0.74003 0.33799,1.3881 0.33799,1.44015 0,0.052 -1.55338,0.47038 -3.45195,0.92962 -17.82763,4.31224 -33.57179,6.78568 -50.74888,7.97278 -4.13263,0.28559 -20.18606,0.55915 -22.25738,0.37927 z m -66.094386,-11.1956 c 2.107086,-0.89318 4.111964,-2.35459 4.02387,-2.9331 -0.07026,-0.46138 -1.930383,-1.1551 -5.485511,-2.04573 -3.853606,-0.96541 -7.0866,-0.0738 -7.676523,2.11698 -0.3689,1.36998 0.560098,2.65144 2.444151,3.37143 0.525928,0.201 1.429652,0.27233 2.924989,0.23084 1.910893,-0.0529 2.351586,-0.13956 3.769024,-0.74042 z m 29.238604,-31.75451 c 6.574536,-2.39941 11.945606,-8.27264 13.475296,-14.73512 1.04964,-4.43447 -0.82718,-7.93852 -4.248678,-7.93237 -1.958104,0.004 -3.778053,1.212 -5.583536,3.70756 -1.147935,1.58671 -3.21772,6.92082 -4.580743,11.80518 -1.020988,3.65871 -1.831491,7.30922 -1.677968,7.55762 0.21448,0.34705 0.813697,0.25476 2.615629,-0.40287 z m 98.833182,27.59757 c -1.67255,-0.39405 -3.5805,-1.86493 -3.95674,-3.05038 -0.20245,-0.6379 -0.85207,-0.53772 -1.80557,0.27844 -1.15516,0.98877 -3.92252,2.30329 -5.4713,2.5989 -0.74452,0.1421 -2.12409,0.20335 -3.2518,0.14436 -1.72802,-0.0904 -2.13877,-0.19145 -3.48805,-0.8583 -1.65345,-0.81719 -3.62223,-2.59278 -4.328,-3.90332 -0.22389,-0.41574 -0.54829,-0.75574 -0.72088,-0.75553 -0.17257,2.1e-4 -1.0557,0.55827 -1.96248,1.24016 -5.68209,4.27284 -11.93994,5.41522 -16.87958,3.08135 -1.68442,-0.79586 -3.36062,-2.14902 -4.03822,-3.25998 -0.28338,-0.4646 -0.62756,-0.84722 -0.76487,-0.85027 -0.13731,-0.003 -1.00303,0.50745 -1.92382,1.13445 -3.87224,2.63669 -7.05411,3.79911 -10.83924,3.95986 -2.86602,0.12173 -3.86897,-0.11002 -5.33471,-1.23243 -1.0469,-0.80171 -1.63572,-1.61585 -2.14788,-2.9698 -0.25812,-0.68236 -0.51075,-1.02085 -0.79419,-1.0641 -0.22861,-0.0349 -1.096339,0.27967 -1.928286,0.69901 -4.6703,2.35404 -8.62435,3.68053 -12.84741,4.31002 -2.60654,0.38853 -4.33367,0.38989 -6.516261,0.005 -4.647541,-0.81925 -7.837283,-2.93688 -9.42182,-6.25504 -0.710991,-1.48884 -0.754087,-1.69492 -0.740199,-3.53874 0.02585,-3.42944 1.284322,-6.14056 4.210028,-9.06953 2.608509,-2.61141 5.130411,-3.81081 9.747422,-4.63579 2.90232,-0.51859 7.08953,-0.355 9.13199,0.35679 2.12769,0.74146 3.60272,1.78783 4.20985,2.98638 1.07593,2.12407 0.33318,5.13393 -1.72314,6.98274 -1.18346,1.06403 -3.78176,2.37957 -5.63027,2.85065 -1.91872,0.48896 -5.32228,0.78875 -7.32182,0.64493 -1.315328,-0.0947 -1.828919,-0.0611 -1.945016,0.12671 -0.299023,0.48383 -0.130198,2.14885 0.304235,3.0004 0.351711,0.68942 0.695241,0.97846 1.822901,1.53378 1.30029,0.64032 1.54865,0.68881 3.86733,0.75487 2.08136,0.0593 2.84997,-0.0135 4.80375,-0.45408 3.51892,-0.79381 8.18717,-2.77433 10.245356,-4.34666 0.49359,-0.37707 0.71339,-0.82047 1.09004,-2.1989 0.25948,-0.94963 0.65392,-2.32941 0.87655,-3.06617 0.22262,-0.73675 0.86816,-2.95478 1.43455,-4.92893 0.56637,-1.97416 1.07708,-3.63668 1.1349,-3.6945 0.0578,-0.0578 2.3888,-0.14185 5.17996,-0.18677 4.73131,-0.0761 5.06566,-0.0578 4.93901,0.27236 -0.0747,0.1947 -0.30993,1.01293 -0.52271,1.8183 -0.2128,0.80539 -0.96185,3.55095 -1.66457,6.10128 -2.11032,7.65869 -2.05892,7.3888 -1.63729,8.5983 0.70546,2.0237 4.43254,1.57678 7.71738,-0.9254 l 1.03042,-0.78491 0.16802,-1.74378 c 0.29653,-3.07744 1.45096,-5.65541 3.59771,-8.03403 2.17784,-2.41307 5.27707,-4.27879 8.59948,-5.17686 2.00991,-0.54328 5.96,-0.64544 7.72826,-0.19988 1.47493,0.37165 3.15128,1.21677 3.03385,1.52948 -0.0508,0.13495 -0.26449,0.9177 -0.47516,1.73948 -0.21067,0.82177 -0.46141,1.49413 -0.55722,1.49413 -0.0957,0 -0.47578,-0.23003 -0.84438,-0.51118 -0.83974,-0.6405 -2.22413,-1.13753 -3.16844,-1.13753 -2.78286,0 -5.39466,2.76014 -6.5329,6.90391 -0.45762,1.66593 -0.65249,5.37363 -0.33328,6.34084 0.60399,1.83011 1.91425,2.61237 4.38741,2.61942 2.41711,0.007 4.69762,-1.03087 7.50553,-3.41542 0.98719,-0.83833 1.06714,-0.97737 1.20078,-2.08801 0.45077,-3.7465 2.00031,-6.75094 4.83571,-9.37608 3.2364,-2.99642 6.93679,-4.51103 11.021,-4.51103 2.71559,0 4.18662,0.53882 5.82614,2.13405 0.59922,0.58302 1.18835,0.98971 1.34604,0.92919 0.15424,-0.0592 0.40203,-0.58199 0.55062,-1.1618 l 0.27019,-1.05419 h 4.51485 c 3.58699,0 4.51487,0.0556 4.51487,0.27024 0,0.24328 -1.44115,5.4668 -2.76836,10.0341 -1.47199,5.06546 -1.58052,5.76384 -1.05396,6.78207 0.61949,1.19796 2.81967,1.44413 4.80079,0.53713 0.62272,-0.28508 1.1945,-0.51834 1.27064,-0.51834 0.15795,0 0.63611,1.67411 0.63611,2.2271 0,0.66137 -4.71195,3.13611 -7.16653,3.76388 -1.62056,0.41447 -3.71838,0.48658 -5.04732,0.17349 z m -8.0857,-4.70174 c 1.14439,-0.53173 2.47964,-1.73996 3.10824,-2.81258 0.29108,-0.49671 1.03162,-2.36689 1.64561,-4.15596 0.96584,-2.81426 1.11598,-3.46127 1.11347,-4.79851 -0.005,-2.77462 -1.14941,-4.1931 -3.39976,-4.21464 -0.8903,-0.008 -1.24652,0.11405 -2.23106,0.76735 -1.67424,1.11105 -2.79567,2.74065 -3.71253,5.39485 -1.32491,3.83547 -1.61263,5.7097 -1.16969,7.61952 0.50105,2.16034 2.59592,3.15236 4.64572,2.19997 z m -74.633386,-8.43851 c 1.47671,-0.52296 2.45348,-1.24627 3.30102,-2.44443 0.89345,-1.2631 1.12598,-2.00097 1.14414,-3.63062 0.0143,-1.28225 -0.0364,-1.45899 -0.57157,-1.99419 -0.74273,-0.74273 -1.72337,-0.92818 -3.25581,-0.61569 -1.04178,0.21243 -1.35182,0.39521 -2.27609,1.34185 -1.24633,1.2765 -1.87843,2.44388 -2.87762,5.31446 -0.694057,1.99396 -0.708452,2.09246 -0.34609,2.36725 0.53161,0.40315 3.33691,0.20857 4.88202,-0.33863 z m 25.378646,-15.87356 c -2.21945,-0.58665 -3.60652,-2.02208 -3.60652,-3.73224 0,-2.61798 2.58271,-4.50789 5.84855,-4.27966 3.04272,0.21262 5.31159,1.63122 5.59122,3.49592 0.0858,0.57162 0.0474,1.24577 -0.0955,1.67847 -0.27964,0.84731 -1.52849,2.04247 -2.63261,2.51943 -0.87016,0.3759 -4.12038,0.5784 -5.10523,0.31808 z"
       style="fill:#ec163e;stroke-width:0.2060868" />
  </g>
</svg>
