<?xml version="1.0" encoding="UTF-8" standalone="no"?>
<svg
   xmlns:dc="http://purl.org/dc/elements/1.1/"
   xmlns:cc="http://creativecommons.org/ns#"
   xmlns:rdf="http://www.w3.org/1999/02/22-rdf-syntax-ns#"
   xmlns:svg="http://www.w3.org/2000/svg"
   xmlns="http://www.w3.org/2000/svg"
   xmlns:sodipodi="http://sodipodi.sourceforge.net/DTD/sodipodi-0.dtd"
   xmlns:inkscape="http://www.inkscape.org/namespaces/inkscape"
   version="1.1"
   id="svg164"
   width="960"
   height="720"
   viewBox="0 0 960.00001 719.99999"
   sodipodi:docname="portada.svg"
   inkscape:version="1.0.2 (e86c870879, 2021-01-15)"
   inkscape:export-filename="C:\Users\joanc\Google Drive\Presentaciones\portada.png"
   inkscape:export-xdpi="96"
   inkscape:export-ydpi="96">
  <metadata
     id="metadata170">
    <rdf:RDF>
      <cc:Work
         rdf:about="">
        <dc:format>image/svg+xml</dc:format>
        <dc:type
           rdf:resource="http://purl.org/dc/dcmitype/StillImage" />
        <dc:title></dc:title>
      </cc:Work>
    </rdf:RDF>
  </metadata>
  <defs
     id="defs168" />
  <sodipodi:namedview
     pagecolor="#ffffff"
     bordercolor="#666666"
     borderopacity="1"
     objecttolerance="10"
     gridtolerance="10"
     guidetolerance="10"
     inkscape:pageopacity="0"
     inkscape:pageshadow="2"
     inkscape:window-width="1920"
     inkscape:window-height="986"
     id="namedview166"
     showgrid="false"
     inkscape:zoom="0.61277256"
     inkscape:cx="243.97307"
     inkscape:cy="500.72015"
     inkscape:window-x="-11"
     inkscape:window-y="-11"
     inkscape:window-maximized="1"
     inkscape:current-layer="g172" />
  <g
     inkscape:groupmode="layer"
     inkscape:label="Image"
     id="g172">
    <path
       style="fill:#54c247;fill-opacity:0.4;stroke:none;stroke-width:0.275281"
       d="m 139.61982,700.90047 c -4.49107,-1.48187 -8.79737,-5.14707 -14.65191,-12.47063 -1.21017,-1.51383 -2.50494,-2.83711 -3.01036,-3.07665 -2.51894,-1.19385 -7.90554,-3.58605 -8.87001,-3.93919 -0.60562,-0.22175 -3.39284,-0.70338 -6.19382,-1.07029 -12.919076,-1.6923 -24.536826,-5.09009 -35.648886,-10.42606 -12.26804,-5.89106 -21.76326,-14.12677 -24.29643,-21.07358 -3.25047,-8.91391 2.99143,-15.5035 16.7262,-17.65788 5.65585,-0.88715 5.3251,-0.76196 5.55259,-2.10165 0.31202,-1.83743 1.18183,-3.51868 2.61077,-5.04634 2.28011,-2.43762 5.07128,-3.51266 9.72991,-3.74758 6.04184,-0.30466 11.66258,0.77311 19.714906,3.78034 4.7896,1.78872 5.47274,1.91349 5.70602,1.04217 0.095,-0.35473 0.17437,-1.12101 0.17644,-1.70285 0.0103,-2.88574 2.01857,-10.13963 3.66442,-13.23558 1.30218,-2.44949 3.74913,-4.93261 5.90818,-5.9955 1.62184,-0.79843 2.04243,-0.88634 4.16945,-0.87146 4.31297,0.0302 8.06598,2.04111 12.9382,6.93253 4.71941,4.73801 8.24042,9.83082 12.02541,17.39362 4.68289,9.35692 7.74463,18.71476 9.90748,30.28091 0.55209,2.95239 1.06196,5.42992 1.13304,5.50563 0.0711,0.0757 43.78539,0.17786 97.14289,0.22703 l 627.01364,0.0894 v 1.08055 1.08055 H 253.93741 156.80686 l 0.21523,1.30758 c 0.11837,0.71918 0.22261,3.74989 0.23164,6.73492 0.026,8.60575 -1.0413,14.51436 -3.54943,19.64943 -1.65163,3.3815 -3.44161,5.44095 -5.84805,6.72847 -1.54251,0.82529 -2.00984,0.93738 -4.21252,1.01032 -1.84813,0.0612 -2.87038,-0.0476 -4.02391,-0.4282 z m 7.13593,-4.33348 c 1.58619,-0.79044 3.4703,-2.77344 4.59028,-4.83122 1.24479,-2.28709 2.7351,-7.11871 2.19576,-7.11871 -0.0823,0 -0.91171,0.63414 -1.84305,1.40921 -2.94276,2.44899 -5.90722,3.34282 -11.0831,3.34169 -2.09079,-5e-4 -4.60654,-0.21778 -6.85351,-0.59206 -1.95257,-0.32524 -3.61071,-0.53076 -3.68476,-0.45672 -0.40656,0.40656 3.00453,4.04826 5.52236,5.89571 0.87495,0.64199 2.48185,1.59427 3.57088,2.11618 1.71974,0.82415 2.25446,0.94891 4.0672,0.94891 1.69384,0 2.35676,-0.13435 3.51794,-0.71299 z m 2.30015,-10.37526 c 3.16081,-1.55222 4.58964,-4.242 4.26589,-8.03055 -0.23698,-2.7732 -0.80038,-4.4815 -2.84147,-8.61576 l -1.80076,-3.64747 h -2.13172 -2.13172 l -0.28844,2.05557 c -0.38617,2.75198 -1.20553,4.35107 -3.27897,6.3994 -2.75693,2.72352 -7.93459,4.94782 -13.6609,5.86866 -1.17772,0.18939 -2.21143,0.4578 -2.29714,0.59647 -0.24436,0.39539 1.18798,2.36562 2.02856,2.79036 1.15979,0.58603 4.07067,1.49803 8.10986,2.54087 3.51868,0.90846 3.82916,0.9422 8.06408,0.87625 4.18928,-0.0652 4.48063,-0.10597 5.96273,-0.8338 z m -30.87566,-8.58585 c 0,-0.22243 -0.72395,-2.04961 -1.60877,-4.06039 -0.88482,-2.01078 -1.95735,-4.55407 -2.38338,-5.65175 l -0.77461,-1.99579 h -1.33292 c -0.97702,0 -1.33291,0.10591 -1.33291,0.39667 0,0.53147 -0.17236,0.60906 -1.85815,0.83645 l -1.44522,0.19495 v -1.40223 c 0,-1.50002 -0.252,-1.7852 -0.69175,-0.78286 -0.22402,0.51064 -0.52547,0.63399 -1.71696,0.70259 l -1.44522,0.0832 v -1.52843 -1.52843 h 1.11921 c 1.29573,0 2.18416,-0.39584 2.18416,-0.97317 0,-0.30525 0.3679,-0.40323 1.51404,-0.40323 h 1.51405 v 0.96348 c 0,0.95838 0.007,0.96349 1.23876,0.96349 0.68132,0 1.23877,-0.0648 1.23877,-0.14402 0,-0.0792 -0.43718,-1.62004 -0.97151,-3.42407 -1.11162,-3.75314 -2.25564,-8.83546 -3.28654,-14.60046 -0.54924,-3.07145 -0.84029,-4.09818 -1.2626,-4.45401 -1.61402,-1.35993 -15.389266,-4.72885 -23.934416,-5.85348 -3.79546,-0.49952 -10.71669,-1.02344 -11.0226,-0.83438 -0.67924,0.4198 2.0173,6.265 4.82238,10.45335 3.07495,4.59129 5.32692,7.2688 10.31858,12.26846 4.90217,4.91002 7.55696,7.22848 12.960746,11.31876 5.49081,4.15616 12.58702,8.74538 14.71584,9.51695 1.28852,0.46701 3.44102,0.42845 3.44102,-0.0616 z m 9.3992,0.11445 c 6.26109,-0.63687 11.46289,-2.60535 13.82378,-5.23123 1.27455,-1.41761 2.10286,-3.37407 2.10286,-4.96691 0,-1.73415 0.84058,-1.62611 -12.48591,-1.60489 -6.68345,0.0106 -12.35687,0.10355 -12.60761,0.20646 -0.39603,0.16255 -0.23022,0.72908 1.26329,4.31633 0.94553,2.27106 2.1125,4.90344 2.59326,5.84972 1.00406,1.97629 0.71376,1.89808 5.31033,1.43052 z m -23.55678,-1.6056 c -0.0829,-0.13415 -1.54871,-1.23178 -3.25735,-2.4392 -10.759186,-7.603 -19.729726,-16.53317 -25.676666,-25.56111 -2.76216,-4.19319 -5.2949,-9.87227 -5.79355,-12.9907 -0.10188,-0.6371 -0.26231,-1.15821 -0.35651,-1.15803 -1.36863,0.003 -8.1205,1.00939 -10.04648,1.49795 -6.50419,1.64992 -10.08267,4.85243 -10.08267,9.02332 0,3.40401 1.66892,6.27997 6.14601,10.59109 7.9462,7.65163 23.91479,15.37286 40.31493,19.49333 6.093486,1.53097 9.068906,2.05564 8.752286,1.54335 z M 154.4209,669.286 c -0.11479,-1.87602 -0.30465,-3.0225 -0.52357,-3.16151 -0.37197,-0.2362 -2.13281,-0.31225 -2.13281,-0.0921 0,0.0739 0.43847,1.19365 0.97439,2.48828 0.5359,1.29463 1.09029,2.65872 1.23195,3.03132 0.49758,1.30876 0.62844,0.64986 0.45004,-2.26597 z m -24.19712,-5.86182 c 8.62093,-0.002 11.90591,-0.089 11.90591,-0.3129 0,-0.66296 -2.54464,-3.82366 -4.788,-5.94719 -3.63492,-3.44076 -8.18471,-6.55801 -14.48168,-9.92202 -3.19971,-1.70937 -9.88372,-4.58587 -10.11608,-4.35351 -0.44111,0.4411 1.32745,9.94614 2.9991,16.11853 1.39592,5.15424 1.23594,4.77971 1.95881,4.58596 0.33882,-0.0908 5.9737,-0.1668 12.52194,-0.16887 z m 16.03512,-0.40623 c 0,-0.59066 -3.75174,-5.00297 -7.69778,-9.05313 -6.80411,-6.98364 -14.24588,-12.9675 -22.90365,-18.4166 -3.43139,-2.15968 -3.57755,-2.13694 -3.47617,0.541 0.0739,1.95178 0.13616,2.15184 0.7686,2.46894 0.37851,0.18979 2.85604,1.38812 5.50562,2.66296 8.3006,3.99382 14.18723,7.93666 18.7191,12.53796 2.82246,2.86571 5.19057,6.077 6.10631,8.28051 0.56484,1.35916 0.5927,1.38084 1.7759,1.38084 0.87111,0 1.20207,-0.11082 1.20207,-0.40248 z m 7.54723,-0.0793 c -0.06,-0.26496 -0.36375,-1.78244 -0.67499,-3.37219 -3.40779,-17.40615 -10.65461,-33.22856 -19.07616,-41.65011 -2.29629,-2.29629 -3.6613,-3.30667 -6.25846,-4.63251 -1.61014,-0.82197 -1.99553,-0.90438 -4.24831,-0.90842 -3.01995,-0.005 -4.06939,0.4611 -6.14437,2.73147 -1.64109,1.79561 -2.76365,4.00291 -3.72782,7.33005 -0.76596,2.64316 -1.35467,6.33216 -1.05711,6.62404 0.10635,0.10431 2.05149,1.35295 4.32256,2.77476 14.06015,8.80237 25.56996,19.43344 31.95878,29.51879 l 1.30867,2.06587 h 1.85316 c 1.62294,0 1.83959,-0.0598 1.74405,-0.48175 z m -46.91241,-28.1071 c 0,-0.73482 -0.0774,-2.07611 -0.1719,-2.98067 -0.15056,-1.44046 -0.26164,-1.68149 -0.89467,-1.94138 -0.39752,-0.1632 -2.20928,-0.97181 -4.02614,-1.7969 -4.397236,-1.99695 -8.932666,-3.56436 -12.948156,-4.47482 -2.7457,-0.62254 -3.91512,-0.74375 -7.03181,-0.72882 -4.32804,0.0207 -5.9675,0.46719 -7.95152,2.16545 -1.25231,1.07193 -2.47985,3.30731 -2.48436,4.52407 l -0.002,0.72586 4.19803,0.18303 c 5.22297,0.22773 8.75705,0.57517 13.00703,1.27876 3.62421,0.6 12.025486,2.61346 15.278086,3.66157 3.0102,0.97 3.02809,0.96636 3.02809,-0.61615 z"
       id="path178"
       sodipodi:nodetypes="sssssssssssssssssssssscccccssssssssssssssssssssscccssssssssssscssscssscccssscsssssssssssssssssssssssssscsssssssssssscsssssscsssssssssssssscssssscsscssssssccssscc" />
  </g>
</svg>
