<?xml version="1.0" encoding="UTF-8" standalone="no"?>
<!-- Created with Inkscape (http://www.inkscape.org/) -->

<svg
   xmlns:dc="http://purl.org/dc/elements/1.1/"
   xmlns:cc="http://creativecommons.org/ns#"
   xmlns:rdf="http://www.w3.org/1999/02/22-rdf-syntax-ns#"
   xmlns:svg="http://www.w3.org/2000/svg"
   xmlns="http://www.w3.org/2000/svg"
   xmlns:sodipodi="http://sodipodi.sourceforge.net/DTD/sodipodi-0.dtd"
   xmlns:inkscape="http://www.inkscape.org/namespaces/inkscape"
   width="210mm"
   height="297mm"
   viewBox="0 0 210 297"
   version="1.1"
   id="svg8"
   inkscape:version="0.92.5 (2060ec1f9f, 2020-04-08)"
   sodipodi:docname="tecnitop_logo.svg">
  <defs
     id="defs2" />
  <sodipodi:namedview
     id="base"
     pagecolor="#ffffff"
     bordercolor="#666666"
     borderopacity="1.0"
     inkscape:pageopacity="0"
     inkscape:pageshadow="2"
     inkscape:zoom="0.24748737"
     inkscape:cx="-292.212"
     inkscape:cy="588.49654"
     inkscape:document-units="mm"
     inkscape:current-layer="layer1"
     showgrid="false"
     inkscape:pagecheckerboard="true"
     inkscape:window-width="1920"
     inkscape:window-height="1009"
     inkscape:window-x="0"
     inkscape:window-y="34"
     inkscape:window-maximized="1" />
  <metadata
     id="metadata5">
    <rdf:RDF>
      <cc:Work
         rdf:about="">
        <dc:format>image/svg+xml</dc:format>
        <dc:type
           rdf:resource="http://purl.org/dc/dcmitype/StillImage" />
        <dc:title></dc:title>
      </cc:Work>
    </rdf:RDF>
  </metadata>
  <g
     inkscape:label="Capa 1"
     inkscape:groupmode="layer"
     id="layer1">
    <g
       id="g859"
       transform="matrix(0.48518429,0,0,0.48518429,109.29456,26.335643)">
      <path
         sodipodi:nodetypes="ccsscscccscccccccscccccscsccsccccccccccccccccccccscsscccccccccccsccccsccssccccccccsccccsscccscsccsscccccscccccccccscscsccsccssccssccccscssscscccscccccccccccccccccccccscccscsccccccccccc"
         style="fill:#1a1a1a;stroke-width:0.35277778"
         d="m 116.81155,279.15966 v -31.57361 h 6.17361 c 5.93842,0 6.17361,0.0269 6.17361,0.70555 0,0.87179 -0.13523,0.88255 2.26873,-0.18059 2.78127,-1.23001 5.94469,-1.61017 10.22307,-1.22854 5.92511,0.52852 9.3326,2.09179 13.04645,5.98536 2.36065,2.47492 4.19143,6.09437 4.96839,9.82253 0.69811,3.34996 0.70298,11.38804 0.009,14.70541 -1.57907,7.54704 -7.83261,14.55551 -14.96964,16.7768 -3.76283,1.17112 -10.82331,1.22428 -14.79007,0.11135 l -0.83171,-0.23335 0.12616,8.34139 0.12619,8.34138 -6.26181,-3e-5 -6.2618,-4e-5 z m 24.26907,3.34898 c 5.73711,-2.46804 8.4755,-11.71276 5.39544,-18.21489 -1.51437,-3.19692 -4.21318,-5.3618 -7.64215,-6.13025 -1.42329,-0.31897 -2.04688,-0.2656 -4.00477,0.34273 -1.27544,0.39629 -3.07304,1.27791 -3.99467,1.95915 l -1.6757,1.23863 v 9.4669 c 0,10.3406 -0.0934,9.85468 2.11466,11.00057 2.94554,1.5286 6.7348,1.65887 9.80719,0.33716 z m -315.31075,11.56844 c -3.90755,-1.37401 -5.95377,-3.42984 -7.49977,-7.53498 -0.75205,-1.99691 -0.79233,-2.657 -0.8975,-14.70258 l -0.11011,-12.6118 h -3.33103 -3.33103 v -5.82084 -5.82083 h 3.35138 3.35139 v -6.17361 -6.17361 h 6.17361 6.17361 v 6.17361 6.17361 h 5.82083 5.82084 v 5.82083 5.82084 h -5.82084 -5.82083 l 0.008,9.61319 c 0.007,8.57088 0.078,9.76619 0.65573,11.02431 0.35639,0.77611 0.95056,1.67973 1.32038,2.00805 1.8982,1.68518 6.76374,1.31133 9.2831,-0.71329 0.76542,-0.61511 1.79785,-1.11838 2.2943,-1.11838 h 0.90263 v 6.00241 6.00241 l -1.14653,0.70596 c -2.22691,1.37121 -4.49145,1.82995 -9.78958,1.98312 -4.64621,0.13433 -5.32555,0.0739 -7.40833,-0.65842 z m 42.71263,0.41693 c -6.637,-1.38423 -12.45951,-5.14853 -15.87506,-10.26336 -4.61545,-6.91168 -4.59883,-18.95578 0.0368,-26.65578 1.5005,-2.49241 4.96369,-5.95563 7.45604,-7.45608 4.31729,-2.59912 10.82751,-3.82356 17.17518,-3.2303 5.40423,0.50508 8.2813,1.84406 12.02811,5.59782 4.5432,4.5516 6.11647,9.04301 5.90396,16.85458 -0.0642,2.36079 -0.20018,4.37564 -0.3021,4.47745 -0.67403,0.67326 -6.24165,1.03238 -18.42371,1.18837 -7.51857,0.0963 -13.67014,0.24452 -13.67014,0.32943 0,1.17356 3.30532,4.60908 5.47868,5.6945 5.32464,2.65924 13.25082,2.57612 19.13421,-0.20067 1.02232,-0.48249 1.9445,-1.01601 2.0493,-1.18559 0.1048,-0.16958 0.67793,-0.30833 1.27362,-0.30833 h 1.08307 l -0.21632,2.73403 c -0.11897,1.50371 -0.32136,4.30081 -0.44975,6.21576 l -0.23345,3.48174 -1.80065,0.79374 c -3.41652,1.50602 -6.70069,2.04694 -13.08955,2.15594 -3.29847,0.0563 -6.69965,-0.0442 -7.55819,-0.22325 z m 13.02626,-29.63318 c 0,-0.69154 -1.08309,-2.95313 -1.97307,-4.11996 -0.4911,-0.64386 -1.7165,-1.59189 -2.72312,-2.10673 -4.70013,-2.40393 -10.59541,-0.11288 -13.28737,5.16379 l -0.72801,1.42701 h 9.35579 c 6.19609,0 9.35578,-0.12297 9.35578,-0.36411 z m 35.375675,29.46436 c -8.15825,-1.7727 -14.41448,-8.06332 -16.14525,-16.23398 -0.68602,-3.2386 -0.67651,-9.72125 0.0193,-13.14573 0.30387,-1.49553 1.19746,-4.06853 1.98575,-5.71776 1.15944,-2.42573 1.98062,-3.53857 4.29821,-5.82482 3.23407,-3.19036 5.87929,-4.68646 10.32903,-5.84197 3.91218,-1.01592 11.84996,-1.02358 15.71583,-0.0152 3.03649,0.79206 6.62785,2.42057 6.63347,3.00795 0.002,0.21105 -0.42458,3.12217 -0.94802,6.46914 -0.9328,5.9645 -0.96889,6.08542 -1.81631,6.08542 -0.51334,0 -1.46556,-0.55394 -2.34381,-1.36348 -2.37828,-2.19222 -4.93124,-3.00241 -9.53581,-3.0262 -3.5508,-0.0183 -4.03314,0.0605 -5.6762,0.92744 -4.39676,2.31998 -6.67168,7.4532 -5.79816,13.08319 0.21425,1.3809 0.6896,3.18903 1.05631,4.01805 0.96833,2.18907 3.60903,4.8465 5.75653,5.793 4.60041,2.02761 12.34592,0.13569 15.60683,-3.81213 0.52813,-0.63939 0.98867,-0.83418 1.76389,-0.74606 l 1.04913,0.11925 0.50138,5.91017 0.50139,5.91018 -0.84676,0.90133 c -1.16868,1.24401 -4.80205,2.91433 -7.65405,3.51871 -3.01894,0.63975 -11.47689,0.63008 -14.45268,-0.0165 z m 161.146959,-0.0148 c -7.585082,-1.64492 -13.614623,-7.51802 -15.766758,-15.35766 -0.883119,-3.21697 -0.889074,-11.9367 -0.01034,-15.1389 1.16265,-4.2368 2.952087,-7.32358 6.042487,-10.42328 4.89838,-4.91313 9.28604,-6.55895 17.470315,-6.55314 7.885155,0.006 12.559249,1.67706 16.975702,6.07051 2.87919,2.86419 5.00962,6.92449 5.78488,11.02513 0.68075,3.60078 0.66683,9.78474 -0.0297,13.21301 -1.74081,8.56762 -8.3891,15.46657 -16.557235,17.18149 -3.120172,0.65509 -10.853481,0.64556 -13.909319,-0.0171 z m 11.79043,-11.83534 c 1.876351,-0.88199 4.234713,-3.35308 5.125089,-5.37008 3.00796,-6.81402 0.499554,-14.97783 -5.490528,-17.86935 -2.133575,-1.02992 -6.287453,-1.16173 -8.275394,-0.2626 -3.252047,1.47089 -5.595691,4.29127 -6.765079,8.14122 -2.994942,9.8602 6.649773,19.47668 15.405912,15.36081 z M -52.169015,271.04577 v -23.45972 h 6.17361 6.17361 v 1.05833 c 0,1.1902 0.22465,1.28522 1.28411,0.54314 3.89117,-2.72548 12.51388,-3.24256 17.41252,-1.04418 2.3273,1.04443 5.44375,4.0278 6.62032,6.33761 1.923641,3.77643 1.966112,4.18232 2.178078,20.81456 0.178411,13.99891 0.259207,15.63191 0.815393,16.47995 0.339549,0.51773 0.617361,1.34378 0.617361,1.83568 v 0.89435 h -6.879167 -6.879165 v -13.68421 c 0,-14.82681 -0.14707,-16.27151 -1.97384,-19.3893 -2.35876,-4.02574 -7.49636,-3.74133 -11.59642,0.64195 l -1.64608,1.7598 0.11164,15.33606 0.11164,15.33607 -6.2618,-1.8e-4 -6.26181,-1.9e-4 z m 49.741669,0 v -23.45972 h 6.350001 6.35 v 23.45972 23.45972 h -6.35 -6.350001 z m 32.808335,-0.58395 v -24.04367 l -5.505489,0.23739 c -3.980092,0.17161 -5.712355,0.38228 -6.252108,0.76034 -0.410637,0.28762 -1.108167,0.52295 -1.550067,0.52295 h -0.803448 l -1.34e-4,-6.4382 -1.34e-4,-6.43819 19.19283,0.11468 c 16.925538,0.10113 19.319759,0.049 20.267338,-0.44098 0.59098,-0.3056 1.482849,-0.55565 1.98193,-0.55565 h 0.907422 l -0.09615,6.4382 -0.09615,6.43819 -1.411111,-0.0221 c -0.776111,-0.0122 -3.990799,-0.14536 -7.14375,-0.29596 l -5.732639,-0.27383 v 24.02027 24.02027 h -6.879167 -6.879167 z"
         id="path840"
         inkscape:connector-curvature="0" />
      <path
         style="fill:#eba0a3;stroke-width:0.35277778"
         d="m 2.435396,239.36463 c -2.906451,-2.10174 -4.490113,-3.47294 -4.497917,-3.89451 -0.01295,-0.69955 3.254446,-5.40368 5.544845,-7.98301 1.275394,-1.43628 1.477035,-1.54162 2.243745,-1.17215 1.230199,0.59283 8.425014,6.39118 8.646449,6.96823 0.103696,0.27022 -0.748263,1.7336 -1.893245,3.25195 -1.144979,1.51835 -2.613032,3.51469 -3.262338,4.43633 -0.649305,0.92163 -1.431455,1.66699 -1.738111,1.65635 -0.306656,-0.0106 -2.576199,-1.47908 -5.043428,-3.26319 z"
         id="path838"
         inkscape:connector-curvature="0" />
      <path
         style="fill:#e47d82;stroke-width:0.35277778"
         d="m 2.741981,239.10303 c -2.455072,-1.75525 -4.463771,-3.39581 -4.463771,-3.64569 0,-0.94235 6.139297,-9.03875 6.852571,-9.03705 0.730599,0.002 9.065278,6.78693 8.891877,7.2388 -0.310078,0.80804 -6.223187,8.63529 -6.523549,8.63529 -0.161347,0 -2.302052,-1.43611 -4.757128,-3.19135 z"
         id="path836"
         inkscape:connector-curvature="0" />
      <path
         style="fill:#dd5c61;stroke-width:0.35277778"
         d="m 3.217099,239.26819 c -5.459028,-3.90342 -5.224089,-3.53091 -3.669958,-5.81887 2.270845,-3.34309 5.09263,-6.67716 5.651207,-6.67716 0.621253,0 8.232493,5.8957 8.495264,6.58047 0.09602,0.25023 -0.753474,1.69355 -1.887767,3.20738 -1.134297,1.51382 -2.459232,3.34289 -2.944301,4.06459 -0.48507,0.7217 -1.12007,1.30769 -1.411112,1.3022 -0.291041,-0.005 -2.196041,-1.20187 -4.233333,-2.65861 z"
         id="path834"
         inkscape:connector-curvature="0" />
      <path
         style="fill:#d73b42;stroke-width:0.35277778"
         d="m 2.949937,238.85752 c -2.369263,-1.69924 -4.310271,-3.27664 -4.313351,-3.50533 -0.0066,-0.49342 4.848398,-7.05555 5.921368,-8.00339 0.738484,-0.65235 0.780158,-0.63088 4.793111,2.46945 2.22648,1.72014 4.119312,3.28914 4.206286,3.48667 0.150717,0.34229 -5.520221,8.36141 -6.047214,8.55122 -0.138847,0.05 -2.190937,-1.29937 -4.5602,-2.99862 z"
         id="path832"
         inkscape:connector-curvature="0" />
      <path
         style="fill:#d42931;stroke-width:0.35277778"
         d="m 3.04071,238.7192 c -2.134306,-1.55838 -3.931267,-3.05516 -3.993251,-3.32618 -0.174677,-0.7638 5.40269,-8.26808 6.14504,-8.26808 0.449654,0 8.018837,5.8682 8.189377,6.34902 0.06083,0.17152 -0.666986,1.31347 -1.617384,2.53767 -0.950394,1.22419 -2.238107,2.97987 -2.861585,3.9015 -0.623475,0.92163 -1.324402,1.66755 -1.557616,1.6576 -0.233215,-0.01 -2.170275,-1.29315 -4.304581,-2.85153 z"
         id="path830"
         inkscape:connector-curvature="0" />
      <path
         style="fill:#d11820;stroke-width:0.42880049"
         d="m 2.435396,239.36463 c -2.5942434,-1.87993 -4.7168058,-3.60105 -4.7168058,-3.82472 0,-0.41321 3.9680643,-5.93334 6.1288248,-8.52605 l 1.1851356,-1.42206 4.7046276,3.70147 c 2.5875498,2.0358 4.7046308,3.92997 4.7046308,4.20925 0,0.73554 -6.3064363,9.29989 -6.84016,9.28918 -0.2471957,-0.005 -2.5720096,-1.54715 -5.166253,-3.42707 z"
         id="path828"
         inkscape:connector-curvature="0" />
    </g>
  </g>
</svg>
